<svg xmlns="http://www.w3.org/2000/svg" viewBox="0 0 64 64">
  <defs>
    <clipPath id="clip"><rect width="64" height="64" rx="17" /></clipPath>
  </defs>
  <g clip-path="url(#clip)">
    <rect width="64" height="64" rx="17" fill="#43859a" />
    <circle cx="56.3" cy="5.1" r="24" fill="#fff" opacity=".2" />
    <g fill="#fff" opacity=".21">
      <rect x="15" y="15" width="9" height="9" rx="3" /><rect x="27" y="15" width="9" height="9" rx="3" /><rect x="39" y="15" width="9" height="9" rx="3" />
      <rect x="15" y="27" width="9" height="9" rx="3" /><rect x="27" y="27" width="9" height="9" rx="3" /><rect x="39" y="27" width="9" height="9" rx="3" />
      <rect x="15" y="39" width="9" height="9" rx="3" /><rect x="27" y="39" width="9" height="9" rx="3" /><rect x="39" y="39" width="9" height="9" rx="3" />
    </g>
    <rect x="19" y="18" width="15" height="4" rx="2" fill="#fff" />
    <rect x="30" y="19" width="4" height="15" rx="2" fill="#fff" />
    <rect x="30" y="31" width="19" height="4" rx="2" fill="#fff" transform="rotate(45 30 31)" />
  </g>
</svg>
