<svg xmlns="http://www.w3.org/2000/svg" viewBox="0 0 64 64">
  <defs>
    <clipPath id="clip"><rect width="64" height="64" rx="17" /></clipPath>
  </defs>
  <g clip-path="url(#clip)">
    <rect width="64" height="64" rx="17" fill="#408f82" />
    <circle cx="56.3" cy="5.1" r="24" fill="#fff" opacity=".2" />
    <ellipse cx="32" cy="26" rx="18" ry="16" fill="#fff" opacity=".23" />
    <ellipse cx="32" cy="23.5" rx="16" ry="15.5" fill="#fff" />
    <ellipse cx="33" cy="25" rx="11" ry="11" fill="#56c9a3" opacity=".16" />
    <path d="m27 37 5 7 5-7z" fill="#fff" />
    <path d="M32 43c-4 5 4 6 0 11" fill="none" stroke="#fff" stroke-opacity=".73" stroke-width="1.8" stroke-linecap="round" />
    <rect x="10" y="47" width="44" height="10" rx="5" fill="#fff" opacity=".28" />
    <path d="M26 20c0-5 3-8 7-8s8 3 8 8c0 4-3 6-5 8-1 1-2 2-2 4h-5c0-4 2-6 4-8 2-1 3-2 3-4 0-2-1-3-3-3s-3 1-3 3z" fill="#56c9a3" />
    <circle cx="32" cy="34" r="2" fill="#56c9a3" />
    <g fill="#fff"><rect x="13.5" y="50" width="7.5" height="5" rx="2" /><rect x="24" y="50" width="7.5" height="5" rx="2" /><rect x="34.5" y="50" width="7.5" height="5" rx="2" /><rect x="45" y="50" width="7.5" height="5" rx="2" /></g>
  </g>
</svg>
